<svg xmlns="http://www.w3.org/2000/svg" width="20.074" height="23.97"><g fill="#F56B05"><path data-name="Контур 164" d="M10.037 23.97l-.7-.6c-.96-.8-9.341-8.042-9.341-13.336a10.037 10.037 0 1120.074 0c0 5.295-8.381 12.533-9.337 13.34zm0-21.8a7.876 7.876 0 00-7.862 7.867c0 3.326 5.156 8.64 7.867 11.071 2.71-2.433 7.867-7.749 7.867-11.071a7.876 7.876 0 00-7.872-7.867z"/><path data-name="Контур 165" d="M10.032 14.015a3.979 3.979 0 113.979-3.979 3.979 3.979 0 01-3.979 3.979zm0-5.968a1.989 1.989 0 101.989 1.989 1.989 1.989 0 00-1.989-1.989z"/></g></svg>