<svg data-name="01 align center" xmlns="http://www.w3.org/2000/svg" width="24" height="24"><path data-name="Контур 166" d="M21 2h-3V0h-2v2H8V0H6v2H3a3 3 0 00-3 3v19h24V5a3 3 0 00-3-3zM2 5a1 1 0 011-1h18a1 1 0 011 1v3H2zm0 17V10h20v12z" fill="#F56B05"/><path data-name="Прямоугольник 339" fill="#F56B05" d="M15 13h2v2h-2z"/><path data-name="Прямоугольник 340" fill="#F56B05" d="M11 13h2v2h-2z"/><path data-name="Прямоугольник 341" fill="#F56B05" d="M7 13h2v2H7z"/><path data-name="Прямоугольник 342" fill="#F56B05" d="M15 17h2v2h-2z"/><path data-name="Прямоугольник 343" fill="#F56B05" d="M11 17h2v2h-2z"/><path data-name="Прямоугольник 344" fill="#F56B05" d="M7 17h2v2H7z"/></svg>