<svg xmlns="http://www.w3.org/2000/svg" width="59.999" height="59.997" viewBox="0 0 59.999 59.997">
  <g id="Group_6" transform="translate(-130.001 252.999)">
    <path id="path239" d="M130-253v60h60v-60Z" fill="none" fill-rule="evenodd"/>
    <path id="path241" d="M160-201H141a2.218,2.218,0,0,1-2.487-1.887A34.459,34.459,0,0,1,137-211v-2c0-11,3.587-22.247,6-33a3.678,3.678,0,0,1,3-3,91.506,91.506,0,0,1,14-1,82.77,82.77,0,0,1,14,1,3.533,3.533,0,0,1,3,3c2.413,10.753,6,22,6,33v2a34.46,34.46,0,0,1-1.513,8.113A2.218,2.218,0,0,1,179-201H160" fill="none" stroke="#ff6b00" stroke-linecap="round" stroke-linejoin="round" stroke-miterlimit="79.84" stroke-width="2" fill-rule="evenodd"/>
    <path id="path243" d="M145-242h30" fill="none" stroke="#ff6b00" stroke-linecap="round" stroke-linejoin="round" stroke-miterlimit="79.84" stroke-width="2" fill-rule="evenodd"/>
    <path id="path245" d="M140-228a200.555,200.555,0,0,0,40,0" fill="none" stroke="#ff6b00" stroke-linecap="round" stroke-linejoin="round" stroke-miterlimit="79.84" stroke-width="2" fill-rule="evenodd"/>
    <path id="path247" d="M139-230a2.8,2.8,0,0,1-2-1l-1-3c-1.959-.257-2.948.42-3,2v4c.044,1.191.737,1.832,2,2h3" fill="none" stroke="#ff6b00" stroke-linecap="round" stroke-linejoin="round" stroke-miterlimit="79.84" stroke-width="2" fill-rule="evenodd"/>
    <path id="path249" d="M140-220h2a3.441,3.441,0,0,1,3,2l2,5h-9" fill="none" stroke="#ff6b00" stroke-linecap="round" stroke-linejoin="round" stroke-miterlimit="79.84" stroke-width="2" fill-rule="evenodd"/>
    <path id="path251" d="M157-217h-8" fill="none" stroke="#ff6b00" stroke-linecap="round" stroke-linejoin="round" stroke-miterlimit="79.84" stroke-width="2" fill-rule="evenodd"/>
    <path id="path253" d="M157-213h-7" fill="none" stroke="#ff6b00" stroke-linecap="round" stroke-linejoin="round" stroke-miterlimit="79.84" stroke-width="2" fill-rule="evenodd"/>
    <path id="path255" d="M137-209v11a1.994,1.994,0,0,0,2,2h4a1.917,1.917,0,0,0,2-2v-3" fill="none" stroke="#ff6b00" stroke-linecap="round" stroke-linejoin="round" stroke-miterlimit="79.84" stroke-width="2" fill-rule="evenodd"/>
    <path id="path257" d="M160-207H150" fill="none" stroke="#ff6b00" stroke-linecap="round" stroke-linejoin="round" stroke-miterlimit="79.84" stroke-width="2" fill-rule="evenodd"/>
    <path id="path259" d="M145.108-207H141" fill="none" stroke="#ff6b00" stroke-linecap="round" stroke-linejoin="round" stroke-miterlimit="79.84" stroke-width="2" fill-rule="evenodd"/>
    <path id="path261" d="M181-230a2.8,2.8,0,0,0,2-1l1-3c1.959-.257,2.948.42,3,2v4c-.044,1.191-.737,1.832-2,2h-3" fill="none" stroke="#ff6b00" stroke-linecap="round" stroke-linejoin="round" stroke-miterlimit="79.84" stroke-width="2" fill-rule="evenodd"/>
    <path id="path263" d="M180-220h-2a3.441,3.441,0,0,0-3,2l-2,5h9" fill="none" stroke="#ff6b00" stroke-linecap="round" stroke-linejoin="round" stroke-miterlimit="79.84" stroke-width="2" fill-rule="evenodd"/>
    <path id="path265" d="M163-217h8" fill="none" stroke="#ff6b00" stroke-linecap="round" stroke-linejoin="round" stroke-miterlimit="79.84" stroke-width="2" fill-rule="evenodd"/>
    <path id="path267" d="M163-213h7" fill="none" stroke="#ff6b00" stroke-linecap="round" stroke-linejoin="round" stroke-miterlimit="79.84" stroke-width="2" fill-rule="evenodd"/>
    <path id="path269" d="M183-209v11a1.994,1.994,0,0,1-2,2h-4a1.917,1.917,0,0,1-2-2v-3" fill="none" stroke="#ff6b00" stroke-linecap="round" stroke-linejoin="round" stroke-miterlimit="79.84" stroke-width="2" fill-rule="evenodd"/>
    <path id="path271" d="M160-207h10" fill="none" stroke="#ff6b00" stroke-linecap="round" stroke-linejoin="round" stroke-miterlimit="79.84" stroke-width="2" fill-rule="evenodd"/>
    <path id="path273" d="M174.892-207H179" fill="none" stroke="#ff6b00" stroke-linecap="round" stroke-linejoin="round" stroke-miterlimit="79.84" stroke-width="2" fill-rule="evenodd"/>
    <path id="path275" d="M160-218a3,3,0,0,1,3,3,3,3,0,0,1-3,3,3,3,0,0,1-3-3A3,3,0,0,1,160-218Z" fill="none" stroke="#ff6b00" stroke-miterlimit="79.84" stroke-width="2" fill-rule="evenodd"/>
  </g>
</svg>
