<svg xmlns="http://www.w3.org/2000/svg" width="59.998" height="60"><g fill="none"><path d="M-.003 0v60h60V0z"/><path d="M29.997 54.999h-20a1.822 1.822 0 01-2-2v-34c0-2.392.7-3.718 2.343-5.577l7.156-7.774c1.393-1.241 2.788-1.651 5.225-1.651h22.276a1.855 1.855 0 012 2v19" stroke="#ff6b00" stroke-linecap="round" stroke-linejoin="round" stroke-miterlimit="79.84" stroke-width="2"/><path d="M11.997 16.996h7a2.068 2.068 0 002-2v-7m19 31.002c-.1-3.146-1-4.271-3-5h-2m-2 4l-6-5m6 5l1 3 3 1m-3 3.001h-2c-5-2-5-4-5-12m8-3.002l1 1h1l1-1m1-4l1.333 2h1.333l1.333-2m-1.999 22.002c-1-1-3-2-3-4v-5h6v5c0 2-2 3-3 4m-3-2l-2 1v3l-3 1m1 2l-5-6m12 1v6m0-4c-1.837.316-2.919 1.249-3 3m4-14.001c.1-3.146 1-4.271 3-5h2m0-4.001l-1 1h-1l-1-1m0 16.002l2 1v3l3 1m-1 2l5-6m-12 3c1.837.316 2.919 1.249 3 3m5-15.001l6-5m-6 5l-1 3-3 1m3 3.001h2c5-2 5-4 5-12m-41-4h15m2-16.003l3 3 5-5m-25 23.003h8m-8-10.002h18" stroke="#ff6b00" stroke-linecap="round" stroke-linejoin="round" stroke-miterlimit="79.84" stroke-width="2"/></g></svg>