<svg xmlns="http://www.w3.org/2000/svg" width="60.003" height="60.003" viewBox="0 0 60.003 60.003">
  <g id="Group_3" transform="translate(-30.001 73.004)">
    <path id="path180" d="M30-73v60H90V-73Z" fill="none" fill-rule="evenodd"/>
    <path id="path182" d="M62.752-58.973Q61.866-59.015,61-59A21.4,21.4,0,0,0,42.324-47.027C40.608-43.517,39.775-39.112,39-35a3.6,3.6,0,0,1-1.923,2.3A26.256,26.256,0,0,1,32-31a1.63,1.63,0,0,0,0,3,15.57,15.57,0,0,0,6,1H86c2.507.035,3-1.149,3-2,0-1.392-2.345-3.852-3-5-.657-6.251-1.931-10.157-3.727-13.436" fill="none" stroke="#ff6b00" stroke-linecap="round" stroke-linejoin="round" stroke-miterlimit="79.84" stroke-width="2" fill-rule="evenodd"/>
    <path id="path184" d="M65-27,81.02-16.36a1.868,1.868,0,0,0,2.54-.317L85.6-19.906c.453-.935.756-1.877-.416-2.767L79.874-27" fill="none" stroke="#ff6b00" stroke-linecap="round" stroke-linejoin="round" stroke-miterlimit="79.84" stroke-width="2" fill-rule="evenodd"/>
    <path id="path186" d="M47-32H80" fill="none" stroke="#ff6b00" stroke-linecap="round" stroke-linejoin="round" stroke-miterlimit="79.84" stroke-width="2" fill-rule="evenodd"/>
    <path id="path188" d="M63.236-54.971Q62.624-55,62-55c-7,0-13.527,3.573-16,10" fill="none" stroke="#ff6b00" stroke-linecap="round" stroke-linejoin="round" stroke-miterlimit="79.84" stroke-width="2" fill-rule="evenodd"/>
    <path id="path190" d="M76-72A13.007,13.007,0,0,1,89-59,13.007,13.007,0,0,1,76-46,13.007,13.007,0,0,1,63-59,13.007,13.007,0,0,1,76-72Z" fill="none" stroke="#ff6b00" stroke-linecap="round" stroke-linejoin="round" stroke-miterlimit="79.84" stroke-width="2" fill-rule="evenodd"/>
    <path id="path192" d="M70-60l5,5,7-7" fill="none" stroke="#ff6b00" stroke-linecap="round" stroke-linejoin="round" stroke-miterlimit="79.84" stroke-width="2" fill-rule="evenodd"/>
    <path id="path194" d="M81-22a1,1,0,0,1,1,1,1,1,0,0,1-1,1,1,1,0,0,1-1-1A1,1,0,0,1,81-22Z" fill="#ff6b00" fill-rule="evenodd"/>
    <path id="path196" d="M78-24a1,1,0,0,1,1,1,1,1,0,0,1-1,1,1,1,0,0,1-1-1A1,1,0,0,1,78-24Z" fill="#ff6b00" fill-rule="evenodd"/>
  </g>
</svg>
