<svg xmlns="http://www.w3.org/2000/svg" width="60.004" height="60"><g fill="none"><path d="M.002 0v60h60V0z"/><path d="M49.002 48.999h5.477a4.527 4.527 0 004.523-4.524V14.519a4.527 4.527 0 00-4.524-4.524H5.524a4.527 4.527 0 00-4.522 4.524v29.956a4.527 4.527 0 004.524 4.524h23.476" stroke="#ff6b00" stroke-linecap="round" stroke-linejoin="round" stroke-miterlimit="79.84" stroke-width="2"/><path d="M48.731 52.629l-1.239-7.223a1.75 1.75 0 01.449-1.381l5.248-5.115c1.388-1.352.956-2.678-.961-2.955l-7.253-1.056a1.742 1.742 0 01-1.173-.853l-3.244-6.571c-.857-1.739-2.249-1.739-3.107 0l-3.249 6.569a1.742 1.742 0 01-1.173.853l-7.253 1.056c-1.917.277-2.349 1.6-.961 2.955l5.248 5.115a1.751 1.751 0 01.449 1.381l-1.239 7.223c-.327 1.911.8 2.728 2.515 1.828l6.487-3.41a1.749 1.749 0 011.451 0l6.488 3.411c1.715.9 2.841.083 2.515-1.828z" stroke="#ff6b00" stroke-miterlimit="79.84" stroke-width="2"/><path d="M19.002 17.996l-9 13" stroke="#ff6b00" stroke-linecap="round" stroke-linejoin="round" stroke-miterlimit="79.84" stroke-width="2"/><path d="M10.002 16.996a3 3 0 013 3 3 3 0 01-3 3 3 3 0 01-3-3 3 3 0 013-3zm9 9.001a3 3 0 013 3 3 3 0 01-3 3 3 3 0 01-3-3 3 3 0 013-3z" stroke="#ff6b00" stroke-miterlimit="79.84" stroke-width="2"/></g></svg>