<svg xmlns="http://www.w3.org/2000/svg" width="59.998" height="59.997" viewBox="0 0 59.998 59.997">
  <g id="Group_2" transform="translate(-30.001 252.999)">
    <path id="path167" d="M30-253v60H90v-60Z" fill="none" fill-rule="evenodd"/>
    <path id="path169" d="M60-251a28.011,28.011,0,0,1,28,28,28.011,28.011,0,0,1-28,28,28.011,28.011,0,0,1-28-28A28.011,28.011,0,0,1,60-251Z" fill="none" stroke="#ff6b00" stroke-miterlimit="79.84" stroke-width="2" fill-rule="evenodd"/>
    <path id="path171" d="M60-251c6.624,0,12,12.544,12,28s-5.377,28-12,28-12-12.544-12-28S53.375-251,60-251Z" fill="none" stroke="#ff6b00" stroke-miterlimit="79.84" stroke-width="2" fill-rule="evenodd"/>
    <path id="path173" d="M88-223H32" fill="none" stroke="#ff6b00" stroke-linecap="round" stroke-linejoin="round" stroke-miterlimit="79.84" stroke-width="2" fill-rule="evenodd"/>
    <path id="path175" d="M83-238H37" fill="none" stroke="#ff6b00" stroke-linecap="round" stroke-linejoin="round" stroke-miterlimit="79.84" stroke-width="2" fill-rule="evenodd"/>
    <path id="path177" d="M83-208H37" fill="none" stroke="#ff6b00" stroke-linecap="round" stroke-linejoin="round" stroke-miterlimit="79.84" stroke-width="2" fill-rule="evenodd"/>
  </g>
</svg>
