<svg xmlns="http://www.w3.org/2000/svg" width="59.999" height="59.997" viewBox="0 0 59.999 59.997">
  <g id="Group" transform="translate(-130.001 162.998)">
    <path id="path81" d="M130-163v60h60v-60Z" fill="none" fill-rule="evenodd"/>
    <path id="path83" d="M160-108H140a1.822,1.822,0,0,1-2-2v-34c0-2.392.7-3.717,2.343-5.576l7.156-7.773c1.393-1.241,2.788-1.651,5.225-1.651H175a1.855,1.855,0,0,1,2,2v19" fill="none" stroke="#ff6b00" stroke-linecap="round" stroke-linejoin="round" stroke-miterlimit="79.84" stroke-width="2" fill-rule="evenodd"/>
    <path id="path85" d="M142-146h7a2.068,2.068,0,0,0,2-2v-7" fill="none" stroke="#ff6b00" stroke-linecap="round" stroke-linejoin="round" stroke-miterlimit="79.84" stroke-width="2" fill-rule="evenodd"/>
    <path id="path87" d="M170-124c-.1-3.145-1-4.271-3-5h-2" fill="none" stroke="#ff6b00" stroke-linecap="round" stroke-linejoin="round" stroke-miterlimit="79.84" stroke-width="2" fill-rule="evenodd"/>
    <path id="path89" d="M163-125l-6-5" fill="none" stroke="#ff6b00" stroke-linecap="round" stroke-linejoin="round" stroke-miterlimit="79.84" stroke-width="2" fill-rule="evenodd"/>
    <path id="path91" d="M163-125l1,3,3,1" fill="none" stroke="#ff6b00" stroke-linecap="round" stroke-linejoin="round" stroke-miterlimit="79.84" stroke-width="2" fill-rule="evenodd"/>
    <path id="path93" d="M164-118h-2c-5-2-5-4-5-12" fill="none" stroke="#ff6b00" stroke-linecap="round" stroke-linejoin="round" stroke-miterlimit="79.84" stroke-width="2" fill-rule="evenodd"/>
    <path id="path95" d="M165-133l1,1h1l1-1" fill="none" stroke="#ff6b00" stroke-linecap="round" stroke-linejoin="round" stroke-miterlimit="79.84" stroke-width="2" fill-rule="evenodd"/>
    <path id="path97" d="M169-137l1.333,2h1.333L173-137" fill="none" stroke="#ff6b00" stroke-linecap="round" stroke-linejoin="round" stroke-miterlimit="79.84" stroke-width="2" fill-rule="evenodd"/>
    <path id="path99" d="M171-115c-1-1-3-2-3-4v-5h6v5c0,2-2,3-3,4" fill="none" stroke="#ff6b00" stroke-linecap="round" stroke-linejoin="round" stroke-miterlimit="79.84" stroke-width="2" fill-rule="evenodd"/>
    <path id="path101" d="M168-117l-2,1v3l-3,1" fill="none" stroke="#ff6b00" stroke-linecap="round" stroke-linejoin="round" stroke-miterlimit="79.84" stroke-width="2" fill-rule="evenodd"/>
    <path id="path103" d="M164-110l-5-6" fill="none" stroke="#ff6b00" stroke-linecap="round" stroke-linejoin="round" stroke-miterlimit="79.84" stroke-width="2" fill-rule="evenodd"/>
    <path id="path105" d="M171-115v6" fill="none" stroke="#ff6b00" stroke-linecap="round" stroke-linejoin="round" stroke-miterlimit="79.84" stroke-width="2" fill-rule="evenodd"/>
    <path id="path107" d="M171-113c-1.837.316-2.919,1.249-3,3" fill="none" stroke="#ff6b00" stroke-linecap="round" stroke-linejoin="round" stroke-miterlimit="79.84" stroke-width="2" fill-rule="evenodd"/>
    <path id="path109" d="M172-124c.1-3.145,1-4.271,3-5h2" fill="none" stroke="#ff6b00" stroke-linecap="round" stroke-linejoin="round" stroke-miterlimit="79.84" stroke-width="2" fill-rule="evenodd"/>
    <path id="path111" d="M177-133l-1,1h-1l-1-1" fill="none" stroke="#ff6b00" stroke-linecap="round" stroke-linejoin="round" stroke-miterlimit="79.84" stroke-width="2" fill-rule="evenodd"/>
    <path id="path113" d="M174-117l2,1v3l3,1" fill="none" stroke="#ff6b00" stroke-linecap="round" stroke-linejoin="round" stroke-miterlimit="79.84" stroke-width="2" fill-rule="evenodd"/>
    <path id="path115" d="M178-110l5-6" fill="none" stroke="#ff6b00" stroke-linecap="round" stroke-linejoin="round" stroke-miterlimit="79.84" stroke-width="2" fill-rule="evenodd"/>
    <path id="path117" d="M171-113c1.837.316,2.919,1.249,3,3" fill="none" stroke="#ff6b00" stroke-linecap="round" stroke-linejoin="round" stroke-miterlimit="79.84" stroke-width="2" fill-rule="evenodd"/>
    <path id="path119" d="M179-125l6-5" fill="none" stroke="#ff6b00" stroke-linecap="round" stroke-linejoin="round" stroke-miterlimit="79.84" stroke-width="2" fill-rule="evenodd"/>
    <path id="path121" d="M179-125l-1,3-3,1" fill="none" stroke="#ff6b00" stroke-linecap="round" stroke-linejoin="round" stroke-miterlimit="79.84" stroke-width="2" fill-rule="evenodd"/>
    <path id="path123" d="M178-118h2c5-2,5-4,5-12" fill="none" stroke="#ff6b00" stroke-linecap="round" stroke-linejoin="round" stroke-miterlimit="79.84" stroke-width="2" fill-rule="evenodd"/>
    <path id="path125" d="M144-134h15" fill="none" stroke="#ff6b00" stroke-linecap="round" stroke-linejoin="round" stroke-miterlimit="79.84" stroke-width="2" fill-rule="evenodd"/>
    <path id="path127" d="M161-150l3,3,5-5" fill="none" stroke="#ff6b00" stroke-linecap="round" stroke-linejoin="round" stroke-miterlimit="79.84" stroke-width="2" fill-rule="evenodd"/>
    <path id="path129" d="M144-129h8" fill="none" stroke="#ff6b00" stroke-linecap="round" stroke-linejoin="round" stroke-miterlimit="79.84" stroke-width="2" fill-rule="evenodd"/>
    <path id="path131" d="M144-139h18" fill="none" stroke="#ff6b00" stroke-linecap="round" stroke-linejoin="round" stroke-miterlimit="79.84" stroke-width="2" fill-rule="evenodd"/>
  </g>
</svg>
