<svg xmlns="http://www.w3.org/2000/svg" width="60" height="60"><g fill="none"><path d="M0 0v60h60V0z"/><path d="M11 40.998H6l-5-2.083c.061-8.32-.231-15.135 1.477-20.793.641-1.839 1.583-2.844 2.856-2.933h29.473c4.124 0 5.9 1.282 9.115 4.6L51 28.499l4 2.083a7.013 7.013 0 014 6.25v3.125l-4 1.042m-1-3.001h5" stroke="#ff6b00" stroke-linecap="round" stroke-linejoin="round" stroke-miterlimit="79.84" stroke-width="2"/><path d="M12 40.998a4 4 0 014-4 4 4 0 014 4 4 4 0 01-4 4 4 4 0 01-4-4zm35 0a4 4 0 014-4 4 4 0 014 4 4 4 0 01-4 4 4 4 0 01-4-4z" stroke="#ff6b00" stroke-miterlimit="79.84" stroke-width="2"/><path d="M47 40.998H21m24-19.001h-5l1 6 8 3m-13-9H8l-2 7h29l1-7m-19 0v7m2 9.001h29" stroke="#ff6b00" stroke-linecap="round" stroke-linejoin="round" stroke-miterlimit="79.84" stroke-width="2"/><path d="M41 31.997h2" stroke="#ff7c17" stroke-linecap="round" stroke-linejoin="round" stroke-miterlimit="79.84" stroke-width="2"/><path d="M26 21.997v7M1 37.998h12" stroke="#ff6b00" stroke-linecap="round" stroke-linejoin="round" stroke-miterlimit="79.84" stroke-width="2"/></g></svg>