<svg xmlns="http://www.w3.org/2000/svg" width="60" height="60"><g fill="none"><path d="M-.001 0v60h60V0z"/><path d="M29.999 4.554c5.032 0 7.816 4.084 7.816 9.117s-2.784 9.117-7.816 9.117-7.816-4.084-7.816-9.117 2.785-9.117 7.816-9.117z" stroke="#ff6b00" stroke-miterlimit="79.84" stroke-width="2"/><path d="M29.999 22.787c-9.116 0-13.927 2.915-14.325 9.722V51.44m14.325-28.653c9.116 0 13.927 2.915 14.325 9.722V51.44" stroke="#ff6b00" stroke-linecap="round" stroke-linejoin="round" stroke-miterlimit="79.84" stroke-width="2"/><path d="M10.464 12.368c3.593 0 5.211 2.918 5.211 6.513s-1.617 6.513-5.211 6.513-5.209-2.918-5.209-6.513 1.615-6.513 5.209-6.513z" stroke="#ff6b00" stroke-miterlimit="79.84" stroke-width="2"/><path d="M10.116 25.393c-5.8 0-8.863 1.127-9.116 5.458v12.776" stroke="#ff6b00" stroke-linecap="round" stroke-linejoin="round" stroke-miterlimit="79.84" stroke-width="2"/><path d="M49.536 12.368c-3.593 0-5.211 2.918-5.211 6.513s1.617 6.513 5.211 6.513 5.209-2.918 5.209-6.513-1.616-6.513-5.209-6.513z" stroke="#ff6b00" stroke-miterlimit="79.84" stroke-width="2"/><path d="M49.884 25.393c5.8 0 8.863 1.127 9.116 5.458v13.148m-9.116-18.606c-3.021 0-5.3-.153-6.824 1.271m-32.944-1.271c2.728 0 4.848-.125 6.357.9m3.526 8.705v17m20-17v17m15-17v9m-50-9v9m16-31.002h18m-9-10.001v6" stroke="#ff6b00" stroke-linecap="round" stroke-linejoin="round" stroke-miterlimit="79.84" stroke-width="2"/></g></svg>