<svg xmlns="http://www.w3.org/2000/svg" width="59.999" height="59.997" viewBox="0 0 59.999 59.997">
  <g id="Group_5" transform="translate(-30.001 343)">
    <path id="path218" d="M30-343v60H90v-60Z" fill="none" fill-rule="evenodd"/>
    <path id="path220" d="M34-330c.059-.889.781-1.9,2-3l6-6a3.907,3.907,0,0,1,3-1H81c2.724,0,4,1.524,4,4v46a3.626,3.626,0,0,1-4,4H38a3.725,3.725,0,0,1-4-4Z" fill="none" stroke="#ff6b00" stroke-linecap="round" stroke-linejoin="round" stroke-miterlimit="79.84" stroke-width="2" fill-rule="evenodd"/>
    <path id="path222" d="M34-329h8a2.775,2.775,0,0,0,3-3v-8" fill="none" stroke="#ff6b00" stroke-linecap="round" stroke-linejoin="round" stroke-miterlimit="79.84" stroke-width="2" fill-rule="evenodd"/>
    <path id="path224" d="M60-326a6,6,0,0,1,6,6,6,6,0,0,1-6,6,6,6,0,0,1-6-6A6,6,0,0,1,60-326Z" fill="none" stroke="#ff6b00" stroke-linecap="round" stroke-linejoin="round" stroke-miterlimit="79.84" stroke-width="2" fill-rule="evenodd"/>
    <path id="path226" d="M58-326v-6.933c.545-1.411,3.369-1.459,4,0V-326" fill="none" stroke="#ff6b00" stroke-linecap="round" stroke-linejoin="round" stroke-miterlimit="79.84" stroke-width="2" fill-rule="evenodd"/>
    <path id="path228" d="M66-317l9,16v9L63-314" fill="none" stroke="#ff6b00" stroke-linecap="round" stroke-linejoin="round" stroke-miterlimit="79.84" stroke-width="2" fill-rule="evenodd"/>
    <path id="path230" d="M54-317l-9,16v9l12-22" fill="none" stroke="#ff6b00" stroke-linecap="round" stroke-linejoin="round" stroke-miterlimit="79.84" stroke-width="2" fill-rule="evenodd"/>
    <path id="path232" d="M75-312a17.081,17.081,0,0,1-3.365,4.389" fill="none" stroke="#ff6b00" stroke-linecap="round" stroke-linejoin="round" stroke-miterlimit="79.84" stroke-width="2" fill-rule="evenodd"/>
    <path id="path234" d="M67.732-304.864A16.9,16.9,0,0,1,60-303a16.906,16.906,0,0,1-7.735-1.86" fill="none" stroke="#ff6b00" stroke-linecap="round" stroke-linejoin="round" stroke-miterlimit="79.84" stroke-width="2" fill-rule="evenodd"/>
    <path id="path236" d="M48.591-307.405A17.052,17.052,0,0,1,45-312" fill="none" stroke="#ff6b00" stroke-linecap="round" stroke-linejoin="round" stroke-miterlimit="79.84" stroke-width="2" fill-rule="evenodd"/>
  </g>
</svg>
