<svg xmlns="http://www.w3.org/2000/svg" width="60" height="59.997" viewBox="0 0 60 59.997">
  <g id="Group_1" transform="translate(-30 162.998)">
    <path id="path134" d="M30-163v60H90v-60Z" fill="none" fill-rule="evenodd"/>
    <path id="path136" d="M60-158.443c5.032,0,7.816,4.084,7.816,9.116s-2.784,9.116-7.816,9.116-7.816-4.084-7.816-9.116S54.968-158.443,60-158.443Z" fill="none" stroke="#ff6b00" stroke-miterlimit="79.84" stroke-width="2" fill-rule="evenodd"/>
    <path id="path138" d="M60-140.211c-9.116,0-13.927,2.915-14.325,9.721v18.93" fill="none" stroke="#ff6b00" stroke-linecap="round" stroke-linejoin="round" stroke-miterlimit="79.84" stroke-width="2" fill-rule="evenodd"/>
    <path id="path140" d="M60-140.211c9.116,0,13.927,2.915,14.325,9.721v18.93" fill="none" stroke="#ff6b00" stroke-linecap="round" stroke-linejoin="round" stroke-miterlimit="79.84" stroke-width="2" fill-rule="evenodd"/>
    <path id="path142" d="M40.464-150.63c3.593,0,5.211,2.917,5.211,6.512s-1.617,6.512-5.211,6.512-5.209-2.917-5.209-6.512S36.871-150.63,40.464-150.63Z" fill="none" stroke="#ff6b00" stroke-miterlimit="79.84" stroke-width="2" fill-rule="evenodd"/>
    <path id="path144" d="M40.116-137.606c-5.8,0-8.863,1.127-9.116,5.457v12.775" fill="none" stroke="#ff6b00" stroke-linecap="round" stroke-linejoin="round" stroke-miterlimit="79.84" stroke-width="2" fill-rule="evenodd"/>
    <path id="path146" d="M79.536-150.63c-3.593,0-5.211,2.917-5.211,6.512s1.617,6.512,5.211,6.512,5.209-2.917,5.209-6.512S83.129-150.63,79.536-150.63Z" fill="none" stroke="#ff6b00" stroke-miterlimit="79.84" stroke-width="2" fill-rule="evenodd"/>
    <path id="path148" d="M79.884-137.606c5.8,0,8.863,1.127,9.116,5.457V-119" fill="none" stroke="#ff6b00" stroke-linecap="round" stroke-linejoin="round" stroke-miterlimit="79.84" stroke-width="2" fill-rule="evenodd"/>
    <path id="path150" d="M79.884-137.606c-3.021,0-5.3-.153-6.824,1.271" fill="none" stroke="#ff6b00" stroke-linecap="round" stroke-linejoin="round" stroke-miterlimit="79.84" stroke-width="2" fill-rule="evenodd"/>
    <path id="path152" d="M40.116-137.606c2.728,0,4.848-.125,6.357.9" fill="none" stroke="#ff6b00" stroke-linecap="round" stroke-linejoin="round" stroke-miterlimit="79.84" stroke-width="2" fill-rule="evenodd"/>
    <path id="path154" d="M50-128v17" fill="none" stroke="#ff6b00" stroke-linecap="round" stroke-linejoin="round" stroke-miterlimit="79.84" stroke-width="2" fill-rule="evenodd"/>
    <path id="path156" d="M70-128v17" fill="none" stroke="#ff6b00" stroke-linecap="round" stroke-linejoin="round" stroke-miterlimit="79.84" stroke-width="2" fill-rule="evenodd"/>
    <path id="path158" d="M85-128v9" fill="none" stroke="#ff6b00" stroke-linecap="round" stroke-linejoin="round" stroke-miterlimit="79.84" stroke-width="2" fill-rule="evenodd"/>
    <path id="path160" d="M35-128v9" fill="none" stroke="#ff6b00" stroke-linecap="round" stroke-linejoin="round" stroke-miterlimit="79.84" stroke-width="2" fill-rule="evenodd"/>
    <path id="path162" d="M51-150H69" fill="none" stroke="#ff6b00" stroke-linecap="round" stroke-linejoin="round" stroke-miterlimit="79.84" stroke-width="2" fill-rule="evenodd"/>
    <path id="path164" d="M60-160v6" fill="none" stroke="#ff6b00" stroke-linecap="round" stroke-linejoin="round" stroke-miterlimit="79.84" stroke-width="2" fill-rule="evenodd"/>
  </g>
</svg>
