<svg xmlns="http://www.w3.org/2000/svg" width="60.001" height="59.997" viewBox="0 0 60.001 59.997">
  <g id="culture-raising_2" transform="translate(-239.998 252.999)">
    <path id="path345" d="M240-253v60h60v-60Z" fill="none" fill-rule="evenodd"/>
    <path id="path347" d="M257.137-219c-3.355,0-4.865,2.917-4.865,6.512s1.511,6.512,4.865,6.512S262-208.9,262-212.491,260.491-219,257.137-219Z" fill="none" stroke="#ff6b00" stroke-miterlimit="79.84" stroke-width="2" fill-rule="evenodd"/>
    <path id="path349" d="M257.5-205.979c6.047,0,9.236,1.127,9.5,5.457v4.147" fill="none" stroke="#ff6b00" stroke-linecap="round" stroke-linejoin="round" stroke-miterlimit="79.84" stroke-width="2" fill-rule="evenodd"/>
    <path id="path351" d="M257.5-205.979c-6.047,0-9.236,1.127-9.5,5.457v4.147" fill="none" stroke="#ff6b00" stroke-linecap="round" stroke-linejoin="round" stroke-miterlimit="79.84" stroke-width="2" fill-rule="evenodd"/>
    <path id="path353" d="M282.137-219c-3.355,0-4.865,2.917-4.865,6.512s1.511,6.512,4.865,6.512S287-208.9,287-212.491,285.491-219,282.137-219Z" fill="none" stroke="#ff6b00" stroke-miterlimit="79.84" stroke-width="2" fill-rule="evenodd"/>
    <path id="path355" d="M282.5-205.979c6.047,0,9.236,1.127,9.5,5.457v4.147" fill="none" stroke="#ff6b00" stroke-linecap="round" stroke-linejoin="round" stroke-miterlimit="79.84" stroke-width="2" fill-rule="evenodd"/>
    <path id="path357" d="M282.5-205.979c-6.047,0-9.236,1.127-9.5,5.457v4.147" fill="none" stroke="#ff6b00" stroke-linecap="round" stroke-linejoin="round" stroke-miterlimit="79.84" stroke-width="2" fill-rule="evenodd"/>
    <path id="path359" d="M291-210h3.692A4.31,4.31,0,0,0,299-214.309V-243.7A4.31,4.31,0,0,0,294.691-248H245.306A4.31,4.31,0,0,0,241-243.7v29.386A4.31,4.31,0,0,0,245.306-210H249" fill="none" stroke="#ff6b00" stroke-linecap="round" stroke-linejoin="round" stroke-miterlimit="79.84" stroke-width="2" fill-rule="evenodd"/>
    <path id="path361" d="M252-222.9l12-10.8,12,8.4,12-10.8" fill="none" stroke="#ff6b00" stroke-linecap="round" stroke-linejoin="round" stroke-miterlimit="79.84" stroke-width="2" fill-rule="evenodd"/>
  </g>
</svg>
