<svg xmlns="http://www.w3.org/2000/svg" width="60" height="59.997" viewBox="0 0 60 59.997">
  <g id="culture-raising_0" transform="translate(-240.001 433.001)">
    <path id="path371" d="M240-433v60h60v-60Z" fill="none" fill-rule="evenodd"/>
    <path id="path373" d="M293-409.005v-10.325a3.679,3.679,0,0,0-3.676-3.676H246.674A3.679,3.679,0,0,0,243-419.331v33.65A3.679,3.679,0,0,0,246.674-382H257" fill="none" stroke="#ff6b00" stroke-linecap="round" stroke-linejoin="round" stroke-miterlimit="79.84" stroke-width="2" fill-rule="evenodd"/>
    <path id="path375" d="M267-382h4" fill="none" stroke="#ff6b00" stroke-linecap="round" stroke-linejoin="round" stroke-miterlimit="79.84" stroke-width="2" fill-rule="evenodd"/>
    <path id="path377" d="M281-382h4" fill="none" stroke="#ff6b00" stroke-linecap="round" stroke-linejoin="round" stroke-miterlimit="79.84" stroke-width="2" fill-rule="evenodd"/>
    <path id="path379" d="M257-385.025v6.041A1.98,1.98,0,0,0,258.977-377h6.044A1.98,1.98,0,0,0,267-378.983v-6.041A1.98,1.98,0,0,0,265.021-387h-6.044A1.98,1.98,0,0,0,257-385.025Z" fill="none" stroke="#ff6b00" stroke-miterlimit="79.84" stroke-width="2" fill-rule="evenodd"/>
    <path id="path381" d="M271-390.028v11.044A1.98,1.98,0,0,0,272.977-377h6.044A1.98,1.98,0,0,0,281-378.983v-11.044a1.98,1.98,0,0,0-1.979-1.979h-6.044A1.98,1.98,0,0,0,271-390.028Z" fill="none" stroke="#ff6b00" stroke-miterlimit="79.84" stroke-width="2" fill-rule="evenodd"/>
    <path id="path383" d="M243-403.005h22" fill="none" stroke="#ff6b00" stroke-linecap="round" stroke-linejoin="round" stroke-miterlimit="79.84" stroke-width="2" fill-rule="evenodd"/>
    <path id="path385" d="M271-403.005h10" fill="none" stroke="#ff6b00" stroke-linecap="round" stroke-linejoin="round" stroke-miterlimit="79.84" stroke-width="2" fill-rule="evenodd"/>
    <path id="path387" d="M265-406.014v6.02a.991.991,0,0,0,.989.989h4.023a.991.991,0,0,0,.989-.989v-6.02a.991.991,0,0,0-.989-.989h-4.023A.991.991,0,0,0,265-406.014Z" fill="none" stroke="#ff6b00" stroke-miterlimit="79.84" stroke-width="2" fill-rule="evenodd"/>
    <path id="path389" d="M285-400.025v21.042A1.98,1.98,0,0,0,286.977-377h6.044A1.98,1.98,0,0,0,295-378.983v-21.042l2.021.021c1.352-.073,2.007-.747,1.979-2h0a1.973,1.973,0,0,0-.591-1.312L291-411.005a1.341,1.341,0,0,0-2,0l-7.016,7.295a3.056,3.056,0,0,0-.984,1.705h0a1.846,1.846,0,0,0,2,2Z" fill="none" stroke="#ff6b00" stroke-miterlimit="79.84" stroke-width="2" fill-rule="evenodd"/>
    <path id="path391" d="M258.173-423.032,260-427.005c.769-1.411,1.447-1.912,2.387-2H268" fill="none" stroke="#ff6b00" stroke-linecap="round" stroke-linejoin="round" stroke-miterlimit="79.84" stroke-width="2" fill-rule="evenodd"/>
    <path id="path393" d="M277.826-423.032,276-427.005c-.769-1.411-1.447-1.912-2.387-2H268" fill="none" stroke="#ff6b00" stroke-linecap="round" stroke-linejoin="round" stroke-miterlimit="79.84" stroke-width="2" fill-rule="evenodd"/>
  </g>
</svg>
