<svg xmlns="http://www.w3.org/2000/svg" width="59.999" height="59.997" viewBox="0 0 59.999 59.997">
  <g id="culture-raising_3" transform="translate(-240.001 162.998)">
    <path id="path364" d="M240-163v60h60v-60Z" fill="none" fill-rule="evenodd"/>
    <path id="path366" d="M246-130a1.928,1.928,0,0,1,2-2h6a1.858,1.858,0,0,1,2,2v22a1.858,1.858,0,0,1-2,2h-6a1.928,1.928,0,0,1-2-2Z" fill="none" stroke="#ff6b00" stroke-linecap="round" stroke-linejoin="round" stroke-miterlimit="79.84" stroke-width="2" fill-rule="evenodd"/>
    <path id="path368" d="M255.923-130.528c2.244.113,4.341-.784,6.049-4.3l3.805-8.355a19.93,19.93,0,0,1,4.2-4.4c2.728-1.748,3.824-4.848,4.239-11.015.244-1.889,1.592-2.217,3.812-1.312,3.083,1.261,4.207,4.016,3.995,7.781a15.9,15.9,0,0,1-2.5,7.6A10.785,10.785,0,0,0,278-138h12c2.273-.151,6.124,1.424,6.273,5.273a5.851,5.851,0,0,1-1.347,3.7,5.875,5.875,0,0,1,1.147,2.9,5.431,5.431,0,0,1-1.495,4.545,6.359,6.359,0,0,1-2.105,7.955,6.515,6.515,0,0,1-6.132,7.656L277-106a159.818,159.818,0,0,1-21-2" fill="none" stroke="#ff6b00" stroke-linecap="round" stroke-linejoin="round" stroke-miterlimit="79.84" stroke-width="2" fill-rule="evenodd"/>
  </g>
</svg>
