<svg xmlns="http://www.w3.org/2000/svg" width="94.002" height="94" viewBox="0 0 94.002 94">
  <g id="Group_2" transform="translate(-215.995 330.999)">
    <path id="path131" d="M216-331v94h94v-94Z" fill="none" fill-rule="evenodd"/>
    <path id="path133" d="M298.529-264A2.47,2.47,0,0,0,301-266.467V-314.53A2.47,2.47,0,0,0,298.529-317H227.466A2.47,2.47,0,0,0,225-314.53v48.063A2.47,2.47,0,0,0,227.466-264Z" fill="none" stroke="#f56b05" stroke-linecap="round" stroke-linejoin="round" stroke-miterlimit="79.84" stroke-width="2" fill-rule="evenodd"/>
    <path id="path135" d="M250-307a16.006,16.006,0,0,1,16,16,16.006,16.006,0,0,1-16,16,16.006,16.006,0,0,1-16-16A16.006,16.006,0,0,1,250-307Z" fill="none" stroke="#f56b05" stroke-miterlimit="79.84" stroke-width="2" fill-rule="evenodd"/>
    <path id="path137" d="M280-264l9,19" fill="none" stroke="#f56b05" stroke-linecap="round" stroke-linejoin="round" stroke-miterlimit="79.84" stroke-width="2" fill-rule="evenodd"/>
    <path id="path139" d="M263-264v19" fill="none" stroke="#f56b05" stroke-linecap="round" stroke-linejoin="round" stroke-miterlimit="79.84" stroke-width="2" fill-rule="evenodd"/>
    <path id="path141" d="M250-307v16l13.715-6.857" fill="none" stroke="#f56b05" stroke-linecap="round" stroke-linejoin="round" stroke-miterlimit="79.84" stroke-width="2" fill-rule="evenodd"/>
    <path id="path143" d="M250-291l14.857,4.572" fill="none" stroke="#f56b05" stroke-linecap="round" stroke-linejoin="round" stroke-miterlimit="79.84" stroke-width="2" fill-rule="evenodd"/>
    <path id="path145" d="M273-297h0a3,3,0,0,0,3,3h12a3,3,0,0,0,3-3h0a3,3,0,0,0-3-3h-12A3,3,0,0,0,273-297Z" fill="none" stroke="#f56b05" stroke-miterlimit="79.84" stroke-width="2" fill-rule="evenodd"/>
    <path id="path147" d="M273-285h0a3,3,0,0,0,3,3h12a3,3,0,0,0,3-3h0a3,3,0,0,0-3-3h-12A3,3,0,0,0,273-285Z" fill="none" stroke="#f56b05" stroke-miterlimit="79.84" stroke-width="2" fill-rule="evenodd"/>
    <path id="path149" d="M246-264l-9,19" fill="none" stroke="#f56b05" stroke-linecap="round" stroke-linejoin="round" stroke-miterlimit="79.84" stroke-width="2" fill-rule="evenodd"/>
  </g>
</svg>
