<svg xmlns="http://www.w3.org/2000/svg" width="94.002" height="94" viewBox="0 0 94.002 94">
  <g id="Group" transform="translate(-21.997 330.999)">
    <path id="path81" d="M22-331v94h94v-94Z" fill="none" fill-rule="evenodd"/>
    <path id="path83" d="M105-281a1.919,1.919,0,0,0,2-2v-26a2.019,2.019,0,0,0-2-2H31a2.019,2.019,0,0,0-2,2v26a1.919,1.919,0,0,0,2,2Z" fill="none" stroke="#f56b05" stroke-linecap="round" stroke-linejoin="round" stroke-miterlimit="79.84" stroke-width="2" fill-rule="evenodd"/>
    <path id="path85" d="M55-314c2.107-5.321,5.909-7,13-7s10.893,1.679,13,7" fill="none" stroke="#f56b05" stroke-linecap="round" stroke-linejoin="round" stroke-miterlimit="79.84" stroke-width="2" fill-rule="evenodd"/>
    <path id="path87" d="M31-281v27a1.919,1.919,0,0,0,2,2h70a1.919,1.919,0,0,0,2-2v-27" fill="none" stroke="#f56b05" stroke-linecap="round" stroke-linejoin="round" stroke-miterlimit="79.84" stroke-width="2" fill-rule="evenodd"/>
    <path id="path89" d="M64-281v4.207c0,3.724,8,3.724,8,0V-281" fill="none" stroke="#f56b05" stroke-linecap="round" stroke-linejoin="round" stroke-miterlimit="79.84" stroke-width="2" fill-rule="evenodd"/>
  </g>
</svg>
