<svg xmlns="http://www.w3.org/2000/svg" width="94.134" height="94.137"><g fill="none"><path d="M-.003 0v94.134h94.134V-.003z"/><path d="M47.067 86.292h-31.38a2.858 2.858 0 01-3.139-3.138V29.807c0-3.753 1.1-5.833 3.676-8.749l11.227-12.2c2.186-1.948 4.374-2.59 8.2-2.59h34.95a2.911 2.911 0 013.138 3.138v29.813" stroke="#ff6b00" stroke-linecap="round" stroke-linejoin="round" stroke-miterlimit="79.84" stroke-width="2"/><path d="M18.824 26.666h10.983a3.245 3.245 0 003.138-3.138V12.544m29.811 48.642c-.153-4.935-1.569-6.7-4.707-7.845H54.91m-3.137 6.276l-9.415-7.845m9.414 7.845l1.569 4.707 4.707 1.569m-4.706 4.708h-3.138c-7.846-3.139-7.846-6.277-7.846-18.829m12.552-4.708l1.569 1.569h1.569l1.569-1.569m1.569-6.276l2.092 3.138h2.092l2.092-3.138m-3.137 34.52c-1.569-1.569-4.707-3.138-4.707-6.276v-7.845h9.414v7.845c0 3.138-3.138 4.707-4.707 6.276m-4.707-3.138l-3.138 1.569v4.707l-4.708 1.569m1.57 3.138l-7.846-9.414m18.828 1.569v9.415m.001-6.277c-2.883.5-4.579 1.96-4.707 4.707m6.275-21.967c.153-4.935 1.569-6.7 4.707-7.845h3.138m.001-6.277l-1.569 1.569h-1.569l-1.571-1.569m0 25.106l3.138 1.569v4.707l4.707 1.569m-1.569 3.138l7.845-9.415m-18.827 4.708c2.883.5 4.579 1.96 4.707 4.707m7.844-23.536l9.414-7.845m-9.413 7.845l-1.569 4.707-4.708 1.569m4.707 4.708h3.138c7.845-3.138 7.845-6.276 7.845-18.829m-64.327-6.274h23.534m3.138-25.108l4.707 4.707 7.845-7.845M21.962 53.343h12.552M21.962 37.65h28.241" stroke="#ff6b00" stroke-linecap="round" stroke-linejoin="round" stroke-miterlimit="79.84" stroke-width="2"/></g></svg>