<svg xmlns="http://www.w3.org/2000/svg" width="94.358" height="94.362"><path d="M-.002 0v94.362h94.36V0z" fill="none"/><path d="M47.179 7.162c7.914 0 12.292 6.423 12.292 14.338s-4.378 14.342-12.292 14.342-12.292-6.423-12.292-14.338S39.265 7.162 47.179 7.162z" fill="none" stroke="#ff6b00" stroke-miterlimit="79.84" stroke-width="2"/><path d="M47.179 35.837c-14.337 0-21.9 4.584-22.53 15.29V80.9" fill="none" stroke="#ff6b00" stroke-linecap="round" stroke-linejoin="round" stroke-miterlimit="79.84" stroke-width="2"/><path d="M47.178 35.837c14.337 0 21.9 4.584 22.53 15.29V80.9" fill="none" stroke="#ff6b00" stroke-linecap="round" stroke-linejoin="round" stroke-miterlimit="79.84" stroke-width="2"/><path d="M16.455 19.451c5.651 0 8.195 4.589 8.195 10.242s-2.544 10.242-8.195 10.242-8.193-4.589-8.193-10.242 2.545-10.242 8.193-10.242z" fill="none" stroke="#ff6b00" stroke-miterlimit="79.84" stroke-width="2"/><path d="M15.908 39.935c-9.124 0-13.938 1.772-14.337 8.583V68.61" fill="none" stroke="#ff6b00" stroke-linecap="round" stroke-linejoin="round" stroke-miterlimit="79.84" stroke-width="2"/><path d="M77.903 19.451c-5.651 0-8.195 4.589-8.195 10.242s2.544 10.242 8.195 10.242 8.193-4.589 8.193-10.242-2.542-10.242-8.193-10.242z" fill="none" stroke="#ff6b00" stroke-miterlimit="79.84" stroke-width="2"/><path d="M78.451 39.935c9.124 0 13.938 1.772 14.337 8.583v20.677M78.451 39.936c-4.752 0-8.333-.241-10.732 2m-51.811-2c4.29 0 7.624-.2 10 1.413m5.543 13.692v26.736m31.454-26.736v26.736m23.591-26.736v14.156M7.861 55.041v14.156m25.163-48.758h28.31M47.178 4.71v9.437" fill="none" stroke="#ff6b00" stroke-linecap="round" stroke-linejoin="round" stroke-miterlimit="79.84" stroke-width="2"/></svg>