<svg xmlns="http://www.w3.org/2000/svg" width="94.002" height="94" viewBox="0 0 94.002 94">
  <g id="Group_1" transform="translate(-118.996 330.999)">
    <path id="path92" d="M119-331v94h94v-94Z" fill="none" fill-rule="evenodd"/>
    <path id="path94" d="M126.06-299H210l-8.123,12H157.2" fill="none" stroke="#f56b05" stroke-linecap="round" stroke-linejoin="round" stroke-miterlimit="79.84" stroke-width="2" fill-rule="evenodd"/>
    <path id="path96" d="M184.725-287.615l8.576-10.831" fill="none" stroke="#f56b05" stroke-linecap="round" stroke-linejoin="round" stroke-miterlimit="79.84" stroke-width="2" fill-rule="evenodd"/>
    <path id="path98" d="M201.875-287.615,193.3-298.446" fill="none" stroke="#f56b05" stroke-linecap="round" stroke-linejoin="round" stroke-miterlimit="79.84" stroke-width="2" fill-rule="evenodd"/>
    <path id="path100" d="M167.574-287.615l8.575-10.831" fill="none" stroke="#f56b05" stroke-linecap="round" stroke-linejoin="round" stroke-miterlimit="79.84" stroke-width="2" fill-rule="evenodd"/>
    <path id="path102" d="M184.725-287.615l-8.576-10.831" fill="none" stroke="#f56b05" stroke-linecap="round" stroke-linejoin="round" stroke-miterlimit="79.84" stroke-width="2" fill-rule="evenodd"/>
    <path id="path104" d="M146-247v-51.447l5.785-23.015" fill="none" stroke="#f56b05" stroke-linecap="round" stroke-linejoin="round" stroke-miterlimit="79.84" stroke-width="2" fill-rule="evenodd"/>
    <path id="path106" d="M158-247v-51.447l-6.215-23.015" fill="none" stroke="#f56b05" stroke-linecap="round" stroke-linejoin="round" stroke-miterlimit="79.84" stroke-width="2" fill-rule="evenodd"/>
    <path id="path108" d="M167.574-287.615,159-298.446" fill="none" stroke="#f56b05" stroke-linecap="round" stroke-linejoin="round" stroke-miterlimit="79.84" stroke-width="2" fill-rule="evenodd"/>
    <path id="path110" d="M146-277l11.2,10" fill="none" stroke="#f56b05" stroke-linecap="round" stroke-linejoin="round" stroke-miterlimit="79.84" stroke-width="2" fill-rule="evenodd"/>
    <path id="path112" d="M146.369-257.183l10.829-9.477" fill="none" stroke="#f56b05" stroke-linecap="round" stroke-linejoin="round" stroke-miterlimit="79.84" stroke-width="2" fill-rule="evenodd"/>
    <path id="path114" d="M146-287H156.83" fill="none" stroke="#f56b05" stroke-linecap="round" stroke-linejoin="round" stroke-miterlimit="79.84" stroke-width="2" fill-rule="evenodd"/>
    <path id="path116" d="M146-277.138l11.2-9.477" fill="none" stroke="#f56b05" stroke-linecap="round" stroke-linejoin="round" stroke-miterlimit="79.84" stroke-width="2" fill-rule="evenodd"/>
    <path id="path118" d="M146.368-257.183l10.831,9.476" fill="none" stroke="#f56b05" stroke-linecap="round" stroke-linejoin="round" stroke-miterlimit="79.84" stroke-width="2" fill-rule="evenodd"/>
    <path id="path120" d="M210-299l-58.214-22.461L126.06-299" fill="none" stroke="#f56b05" stroke-linecap="round" stroke-linejoin="round" stroke-miterlimit="79.84" stroke-width="2" fill-rule="evenodd"/>
    <path id="path122" d="M122-298.446v10.831h16.247v-10.831" fill="none" stroke="#f56b05" stroke-linecap="round" stroke-linejoin="round" stroke-miterlimit="79.84" stroke-width="2" fill-rule="evenodd"/>
    <path id="path124" d="M193-287v9" fill="none" stroke="#f56b05" stroke-linecap="round" stroke-linejoin="round" stroke-miterlimit="79.84" stroke-width="2" fill-rule="evenodd"/>
    <path id="path126" d="M193-271v2c-1.585,1.691-2.744,2.068-2.981,3.881A2.747,2.747,0,0,0,193-262a3.186,3.186,0,0,0,2.309-.971" fill="none" stroke="#f56b05" stroke-linecap="round" stroke-linejoin="round" stroke-miterlimit="79.84" stroke-width="2" fill-rule="evenodd"/>
    <path id="path128" d="M189-278h8l-2,7h-4Z" fill="none" stroke="#f56b05" stroke-linecap="round" stroke-linejoin="round" stroke-miterlimit="79.84" stroke-width="2" fill-rule="evenodd"/>
  </g>
</svg>
