<svg xmlns="http://www.w3.org/2000/svg" width="149.885" height="51.245"><path data-name="Контур 1" d="M115.856 30.024l-5.819-9.746a25.808 25.808 0 01-6.681.707l5.109 9.039z" fill="#e56606" fill-rule="evenodd"/><path data-name="Контур 2" d="M21.536 15.012c0-5.266-3.3-9.353-9.51-9.353h-5.5v18.706h5.5c5.973 0 9.51-4.244 9.51-9.353M0 30.024V0h12.025c9.51 0 16.191 5.973 16.191 15.012s-6.6 14.933-16.191 14.933H0z" fill="gray" fill-rule="evenodd"/><path data-name="Контур 3" d="M33.718 30.024V0h21.536v5.659H40.163v6.288h14.776v5.659H40.163v6.759h15.091v5.659z" fill="gray" fill-rule="evenodd"/><path data-name="Контур 4" d="M79.304 30.024l-9.2-12.025-2.358 2.83v9.2h-6.519V0h6.524v13.44L78.518 0h7.938l-12.1 14.069 12.969 15.955z" fill="gray" fill-rule="evenodd"/><path data-name="Контур 5" d="M134.089 6.445l-4.716 12.89h9.51zm8.41 23.579l-1.886-5.109h-13.05l-1.886 5.109h-7.388L130.079.079h8.017l11.793 29.946z" fill="gray" fill-rule="evenodd"/><path data-name="Контур 6" d="M97.696 13.755v-8.1h6.917c2.594 0 4.48 1.493 4.48 4.008 0 2.437-1.886 4.008-4.48 4.008h-6.917zm18-4.087c0-5.266-3.615-9.667-10.218-9.667H91.251v29.945h6.445V19.335h7.781c6.524 0 10.218-4.4 10.218-9.667" fill="gray" fill-rule="evenodd"/><g data-name="Сгруппировать 1" fill="gray"><path data-name="Контур 7" d="M0 44.958a5.911 5.911 0 015.973-6.131 5.4 5.4 0 014.323 2.122l-.865.55a4.392 4.392 0 00-3.458-1.729 5.193 5.193 0 000 10.375 4.277 4.277 0 003.458-1.729l.865.55a5.4 5.4 0 01-4.323 2.122A5.865 5.865 0 010 44.957" fill-rule="evenodd"/><path data-name="Контур 8" d="M23.815 44.958c0-2.987-1.886-5.187-4.716-5.187-2.908 0-4.716 2.2-4.716 5.187s1.808 5.187 4.716 5.187c2.908.079 4.716-2.2 4.716-5.187m-10.453 0c0-3.458 2.279-6.131 5.738-6.131s5.738 2.672 5.738 6.131-2.279 6.131-5.738 6.131-5.738-2.594-5.738-6.131" fill-rule="evenodd"/><path data-name="Контур 9" d="M37.727 50.931L30.26 40.713v10.218h-.943V39.063h1.022l7.388 10.06v-10.06h1.022v11.868z" fill-rule="evenodd"/><path data-name="Контур 10" d="M42.835 49.281l.629-.786a5.014 5.014 0 003.694 1.729c2.437 0 3.144-1.336 3.144-2.358 0-3.458-7.152-1.651-7.152-5.816 0-1.965 1.729-3.144 3.93-3.144a5.133 5.133 0 014.008 1.651l-.707.786a4.255 4.255 0 00-3.38-1.493c-1.572 0-2.751.943-2.751 2.2 0 3.065 7.074 1.336 7.074 5.816 0 1.493-1.022 3.38-4.244 3.38a6.188 6.188 0 01-4.244-1.965" fill-rule="evenodd"/><path data-name="Контур 11" d="M58.634 50.931V40.006h-3.93v-.943h8.8v.943h-3.851v10.925z" fill-rule="evenodd"/><path data-name="Контур 12" d="M74.275 42.521a2.479 2.479 0 00-2.672-2.515h-3.3v5.109h3.3a2.5 2.5 0 002.672-2.594m0 8.41l-3.3-4.873h-2.594v4.873h-1.023V39.063h4.4a3.385 3.385 0 013.615 3.458 3.2 3.2 0 01-3.3 3.38l3.458 4.952h-1.258z" fill-rule="evenodd"/><path data-name="Контур 13" d="M79.619 46.373v-7.31h1.022v7.31c0 2.437 1.258 3.851 3.615 3.851s3.615-1.493 3.615-3.851v-7.31h1.022v7.31c0 2.908-1.572 4.794-4.637 4.794-3.065-.079-4.637-1.886-4.637-4.794" fill-rule="evenodd"/><path data-name="Контур 14" d="M93.138 44.958a5.911 5.911 0 015.973-6.131 5.4 5.4 0 014.323 2.122l-.865.55a4.392 4.392 0 00-3.458-1.729 5.193 5.193 0 000 10.375 4.277 4.277 0 003.458-1.729l.865.55a5.4 5.4 0 01-4.323 2.122 5.865 5.865 0 01-5.973-6.131" fill-rule="evenodd"/><path data-name="Контур 15" d="M110.429 50.931V40.006h-3.851v-.943h8.8v.943h-3.93v10.925z" fill-rule="evenodd"/><path data-name="Прямоугольник 1" d="M119.153 39.063h1.022v11.868h-1.022z"/><path data-name="Контур 16" d="M134.951 44.958c0-2.987-1.886-5.187-4.716-5.187-2.908 0-4.716 2.2-4.716 5.187s1.808 5.187 4.716 5.187c2.908.079 4.716-2.2 4.716-5.187m-10.453 0c0-3.458 2.279-6.131 5.738-6.131s5.738 2.672 5.738 6.131-2.279 6.131-5.738 6.131-5.738-2.594-5.738-6.131" fill-rule="evenodd"/><path data-name="Контур 17" d="M148.863 50.931l-7.467-10.218v10.218h-1.021V39.063h1.022l7.467 10.06v-10.06h1.022v11.868z" fill-rule="evenodd"/></g></svg>